<svg version="1.1" width="595px" height="842px" viewBox="0 0 595 842" xmlns="http://www.w3.org/2000/svg" xmlns:xlink="http://www.w3.org/1999/xlink" xmlns:cs="svg" xml:space="preserve">
  <style type="text/css">
.ps04{fill-opacity:0.149;stroke-opacity:0.149;fill:#2A5978}
.ps03{fill:#000000}
.ps02{fill:#2A5978}
.ps01{fill:#2A5978}
.ps00{fill:none}
.ps22{letter-spacing:0;word-spacing:0;font-family:verdana;font-size:8px;font-weight:600;}
.ps20{letter-spacing:0;word-spacing:0;font-family:Arial;font-size:12px;font-weight:600;}
.ps25{letter-spacing:0;word-spacing:0;font-family:Arial;font-size:32px;font-weight:600;}
.ps21{letter-spacing:0;word-spacing:0;font-family:Trebuchet MS;font-size:10px}
.ps23{letter-spacing:0;word-spacing:0;font-family:verdana;font-size:8px;font-weight:600;}
.ps24{letter-spacing:0;word-spacing:0;font-family:Trebuchet MS;font-size:10px}</style>
<clipPath id="clp1">
<rect width="595" height="842" />
</clipPath>
<g clip-path="url(#clp1)" transform="matrix(1 0 0 -1 0 842)">
<g>
<g transform="matrix(1.342 0 0 1.342 0 0)">
<clipPath id="clp2">
<rect width="446.3" height="627.3" />
</clipPath>
<g clip-path="url(#clp2)">
<g>
<g transform="matrix(0.744 0 0 -0.744 0 627.282)">
<g>
<clipPath id="clp3">
<path d="M0 0 L599 0 L599 842.09 L0 842.09 Z" />
</clipPath>
<g clip-path="url(#clp3)">
<g class="ps00">
<clipPath id="clp4">
<path d="M34.998 229 L366 229 L366 230 L34.998 230 Z" />
</clipPath>
<g clip-path="url(#clp4)">
<g class="ps00">
<path d="M34.998 229 L366 229 L366 230 L34.998 230 Z" class="ps01" />
</g>
</g>
</g>
<g class="ps00">
<clipPath id="clp5">
<path d="M34.998 712 L366 712 L366 713 L34.998 713 Z" />
</clipPath>
<g clip-path="url(#clp5)">
<g class="ps00">
<path d="M34.998 712 L366 712 L366 713 L34.998 713 Z" class="ps01" />
</g>
</g>
</g>
<g class="ps00">
<clipPath id="clp6">
<path d="M400 229 L560 229 L560 230 L400 230 Z" />
</clipPath>
<g clip-path="url(#clp6)">
<g class="ps00">
<path d="M400 229 L560 229 L560 230 L400 230 Z" class="ps01" />
</g>
</g>
</g>
<g class="ps00">
<clipPath id="clp7">
<path d="M400 435 L560 435 L560 436 L400 436 Z" />
</clipPath>
<g clip-path="url(#clp7)">
<g class="ps00">
<path d="M400 435 L560 435 L560 436 L400 436 Z" class="ps01" />
</g>
</g>
</g>
<g class="ps00">
<clipPath id="clp8">
<path d="M400 622 L560 622 L560 623 L400 623 Z" />
</clipPath>
<g clip-path="url(#clp8)">
<g class="ps00">
<path d="M400 622 L560 622 L560 623 L400 623 Z" class="ps01" />
</g>
</g>
</g>
</g>
</g>
<g>
<clipPath id="clp9">
<path d="M34.998 117 L366 117 L366 135 L34.998 135 Z" />
</clipPath>
<g clip-path="url(#clp9)">
<g class="ps00">
<clipPath id="clp10">
<path d="M32.002 114 L214 114 L214 138 L32.002 138 Z" />
</clipPath>
<g clip-path="url(#clp10)">
<g class="ps00">
<text transform="matrix(1 0 0 1 35 131.5)"><tspan class="ps02 ps20" xml:space="preserve">PROFESSIONAL SUMMARY</tspan></text>
</g>
</g>
</g>
</g>
</g>
<g>
<clipPath id="clp11">
<path d="M0 0 L599 0 L599 842.09 L0 842.09 Z" />
</clipPath>
<g clip-path="url(#clp11)">
<g class="ps00">
<clipPath id="clp12">
<path d="M29.998 137 L347 137 L347 158 L29.998 158 Z" />
</clipPath>
<g clip-path="url(#clp12)">
<g class="ps00">
<text transform="matrix(1 0 0 1 35 151.5)"><tspan class="ps03 ps21" xml:space="preserve">Motivated engineering project manager with 13 years of experience,</tspan></text>
</g>
</g>
</g>
<g class="ps00">
<clipPath id="clp13">
<path d="M29.998 154 L367 154 L367 175 L29.998 175 Z" />
</clipPath>
<g clip-path="url(#clp13)">
<g class="ps00">
<text transform="matrix(1 0 0 1 35 168.5)"><tspan class="ps03 ps21" xml:space="preserve">recognised for assessing operational needs and developing solutions to</tspan></text>
</g>
</g>
</g>
<g class="ps00">
<clipPath id="clp14">
<path d="M29.998 171 L324 171 L324 192 L29.998 192 Z" />
</clipPath>
<g clip-path="url(#clp14)">
<g class="ps00">
<text transform="matrix(1 0 0 1 35 185.5)"><tspan class="ps03 ps21" xml:space="preserve">save costs, improve revenues, and drive customer satisfaction.</tspan></text>
</g>
</g>
</g>
<g class="ps00">
<clipPath id="clp15">
<path d="M29.998 188 L321 188 L321 209 L29.998 209 Z" />
</clipPath>
<g clip-path="url(#clp15)">
<g class="ps00">
<text transform="matrix(1 0 0 1 35 202.5)"><tspan class="ps03 ps21" xml:space="preserve">Resourceful and well-organised with excellent leadership and</tspan></text>
</g>
</g>
</g>
<g class="ps00">
<clipPath id="clp16">
<path d="M29.998 205 L140 205 L140 226 L29.998 226 Z" />
</clipPath>
<g clip-path="url(#clp16)">
<g class="ps00">
<text transform="matrix(1 0 0 1 35 219.5)"><tspan class="ps03 ps21" xml:space="preserve">team-building record.</tspan></text>
</g>
</g>
</g>
</g>
</g>
<g>
<clipPath id="clp17">
<path d="M34.998 255 L366 255 L366 273 L34.998 273 Z" />
</clipPath>
<g clip-path="url(#clp17)">
<g class="ps00">
<clipPath id="clp18">
<path d="M32.002 252 L144 252 L144 276 L32.002 276 Z" />
</clipPath>
<g clip-path="url(#clp18)">
<g class="ps00">
<text transform="matrix(1 0 0 1 35 269.5)"><tspan class="ps02 ps20" xml:space="preserve">WORK HISTORY</tspan></text>
</g>
</g>
</g>
</g>
</g>
<g>
<clipPath id="clp19">
<path d="M0 0 L599 0 L599 842.09 L0 842.09 Z" />
</clipPath>
<g clip-path="url(#clp19)">
<g class="ps00">
<clipPath id="clp20">
<path d="M29.998 275 L171 275 L171 296 L29.998 296 Z" />
</clipPath>
<g clip-path="url(#clp20)">
<g class="ps00">
<text transform="matrix(1 0 0 1 35 289.5)"><tspan class="ps03 ps22" xml:space="preserve">Engineering Project Manager</tspan></text>
</g>
</g>
</g>
<g class="ps00">
<clipPath id="clp21">
<path d="M159 275 L174 275 L174 296 L159 296 Z" />
</clipPath>
<g clip-path="url(#clp21)">
<g class="ps00">
<text transform="matrix(1 0 0 1 164.825 289.5)"><tspan xml:space="preserve" x="0,2.4" class="ps03 ps22">, </tspan></text>
</g>
</g>
</g>
<g class="ps00">
<clipPath id="clp22">
<path d="M164 275 L212 275 L212 296 L164 296 Z" />
</clipPath>
<g clip-path="url(#clp22)">
<g class="ps00">
<text transform="matrix(1 0 0 1 169.600 289.5)"><tspan class="ps03 ps23" xml:space="preserve">03/2018</tspan></text>
</g>
</g>
</g>
<g class="ps00">
<clipPath id="clp23">
<path d="M200 275 L225 275 L225 296 L200 296 Z" />
</clipPath>
<g clip-path="url(#clp23)">
<g class="ps00">
<text transform="matrix(1 0 0 1 205.675 289.5)"><tspan xml:space="preserve" class="ps03 ps23"> to </tspan></text>
</g>
</g>
</g>
<g class="ps00">
<clipPath id="clp24">
<path d="M215 275 L261 275 L261 296 L215 296 Z" />
</clipPath>
<g clip-path="url(#clp24)">
<g class="ps00">
<text transform="matrix(1 0 0 1 220.087 289.5)"><tspan class="ps03 ps23" xml:space="preserve">Current</tspan></text>
</g>
</g>
</g>
<g class="ps00">
<clipPath id="clp25">
<path d="M29.998 292 L162 292 L162 313 L29.998 313 Z" />
</clipPath>
<g clip-path="url(#clp25)">
<g class="ps00">
<text transform="matrix(1 0 0 1 35 306.5)"><tspan class="ps03 ps22" xml:space="preserve">BRC Water Engineering Ltd</tspan></text>
</g>
</g>
</g>
<g class="ps00">
<clipPath id="clp26">
<path d="M150 292 L169 292 L169 313 L150 313 Z" />
</clipPath>
<g clip-path="url(#clp26)">
<g class="ps00">
<text transform="matrix(1 0 0 1 155.7 306.5)"><tspan xml:space="preserve" x="0,2.37" class="ps03 ps22"> - </tspan></text>
</g>
</g>
</g>
<g class="ps00">
<clipPath id="clp27">
<path d="M159 292 L216 292 L216 313 L159 313 Z" />
</clipPath>
<g clip-path="url(#clp27)">
<g class="ps00">
<text transform="matrix(1 0 0 1 164.524 306.5)"><tspan class="ps03 ps23" xml:space="preserve">Wakefield</tspan></text>
</g>
</g>
</g>
<g class="ps00">
<clipPath id="clp28">
<path d="M29.998 429 L103 429 L103 450 L29.998 450 Z" />
</clipPath>
<g clip-path="url(#clp28)">
<g class="ps00">
<text transform="matrix(1 0 0 1 35 443.5)"><tspan x="0,5.75" class="ps03 ps22" xml:space="preserve">Civil Engineer</tspan></text>
</g>
</g>
</g>
<g class="ps00">
<clipPath id="clp29">
<path d="M91.001 429 L105 429 L105 450 L91.001 450 Z" />
</clipPath>
<g clip-path="url(#clp29)">
<g class="ps00">
<text transform="matrix(1 0 0 1 96.187 443.5)"><tspan xml:space="preserve" x="0,2.4" class="ps03 ps22">, </tspan></text>
</g>
</g>
</g>
<g class="ps00">
<clipPath id="clp30">
<path d="M94.999 429 L142 429 L142 450 L94.999 450 Z" />
</clipPath>
<g clip-path="url(#clp30)">
<g class="ps00">
<text transform="matrix(1 0 0 1 100.962 443.5)"><tspan class="ps03 ps23" xml:space="preserve">09/2011</tspan></text>
</g>
</g>
</g>
<g class="ps00">
<clipPath id="clp31">
<path d="M130 429 L155 429 L155 450 L130 450 Z" />
</clipPath>
<g clip-path="url(#clp31)">
<g class="ps00">
<text transform="matrix(1 0 0 1 135.837 443.5)"><tspan xml:space="preserve" class="ps03 ps23"> to </tspan></text>
</g>
</g>
</g>
<g class="ps00">
<clipPath id="clp32">
<path d="M145 429 L193 429 L193 450 L145 450 Z" />
</clipPath>
<g clip-path="url(#clp32)">
<g class="ps00">
<text transform="matrix(1 0 0 1 150.25 443.5)"><tspan class="ps03 ps23" xml:space="preserve">03/2018</tspan></text>
</g>
</g>
</g>
<g class="ps00">
<clipPath id="clp33">
<path d="M29.998 446 L110 446 L110 467 L29.998 467 Z" />
</clipPath>
<g clip-path="url(#clp33)">
<g class="ps00">
<text transform="matrix(1 0 0 1 35 460.5)"><tspan class="ps03 ps22" xml:space="preserve">United Utilities</tspan></text>
</g>
</g>
</g>
<g class="ps00">
<clipPath id="clp34">
<path d="M98 446 L117 446 L117 467 L98 467 Z" />
</clipPath>
<g clip-path="url(#clp34)">
<g class="ps00">
<text transform="matrix(1 0 0 1 103.725 460.5)"><tspan xml:space="preserve" x="0,2.37" class="ps03 ps22"> - </tspan></text>
</g>
</g>
</g>
<g class="ps00">
<clipPath id="clp35">
<path d="M107 446 L146 446 L146 467 L107 467 Z" />
</clipPath>
<g clip-path="url(#clp35)">
<g class="ps00">
<text transform="matrix(1 0 0 1 112.55 460.5)"><tspan class="ps03 ps23" xml:space="preserve">Leeds</tspan></text>
</g>
</g>
</g>
<g class="ps00">
<clipPath id="clp36">
<path d="M29.998 583 L147 583 L147 604 L29.998 604 Z" />
</clipPath>
<g clip-path="url(#clp36)">
<g class="ps00">
<text transform="matrix(1 0 0 1 35 597.5)"><tspan class="ps03 ps22" xml:space="preserve">Graduate Civil Engineer</tspan></text>
</g>
</g>
</g>
<g class="ps00">
<clipPath id="clp37">
<path d="M135 583 L150 583 L150 604 L135 604 Z" />
</clipPath>
<g clip-path="url(#clp37)">
<g class="ps00">
<text transform="matrix(1 0 0 1 140.55 597.5)"><tspan xml:space="preserve" x="0,2.4" class="ps03 ps22">, </tspan></text>
</g>
</g>
</g>
<g class="ps00">
<clipPath id="clp38">
<path d="M140 583 L189 583 L189 604 L140 604 Z" />
</clipPath>
<g clip-path="url(#clp38)">
<g class="ps00">
<text transform="matrix(1 0 0 1 145.325 597.5)"><tspan class="ps03 ps23" xml:space="preserve">10/2008</tspan></text>
</g>
</g>
</g>
<g class="ps00">
<clipPath id="clp39">
<path d="M177 583 L201 583 L201 604 L177 604 Z" />
</clipPath>
<g clip-path="url(#clp39)">
<g class="ps00">
<text transform="matrix(1 0 0 1 182.55 597.5)"><tspan xml:space="preserve" class="ps03 ps23"> to </tspan></text>
</g>
</g>
</g>
<g class="ps00">
<clipPath id="clp40">
<path d="M191 583 L239 583 L239 604 L191 604 Z" />
</clipPath>
<g clip-path="url(#clp40)">
<g class="ps00">
<text transform="matrix(1 0 0 1 196.962 597.5)"><tspan class="ps03 ps23" xml:space="preserve">08/2011</tspan></text>
</g>
</g>
</g>
<g class="ps00">
<clipPath id="clp41">
<path d="M29.998 600 L110 600 L110 621 L29.998 621 Z" />
</clipPath>
<g clip-path="url(#clp41)">
<g class="ps00">
<text transform="matrix(1 0 0 1 35 614.5)"><tspan class="ps03 ps22" xml:space="preserve">United Utilities</tspan></text>
</g>
</g>
</g>
<g class="ps00">
<clipPath id="clp42">
<path d="M98 600 L117 600 L117 621 L98 621 Z" />
</clipPath>
<g clip-path="url(#clp42)">
<g class="ps00">
<text transform="matrix(1 0 0 1 103.725 614.5)"><tspan xml:space="preserve" x="0,2.37" class="ps03 ps22"> - </tspan></text>
</g>
</g>
</g>
<g class="ps00">
<clipPath id="clp43">
<path d="M107 600 L146 600 L146 621 L107 621 Z" />
</clipPath>
<g clip-path="url(#clp43)">
<g class="ps00">
<text transform="matrix(1 0 0 1 112.55 614.5)"><tspan class="ps03 ps23" xml:space="preserve">Leeds</tspan></text>
</g>
</g>
</g>
</g>
</g>
<g>
<clipPath id="clp44">
<path d="M400 117 L560 117 L560 135 L400 135 Z" />
</clipPath>
<g clip-path="url(#clp44)">
<g class="ps00">
<clipPath id="clp45">
<path d="M397 114 L467 114 L467 138 L397 138 Z" />
</clipPath>
<g clip-path="url(#clp45)">
<g class="ps00">
<text transform="matrix(1 0 0 1 400 131.5)"><tspan class="ps02 ps20" xml:space="preserve">CONTACT</tspan></text>
</g>
</g>
</g>
</g>
</g>
<g>
<clipPath id="clp46">
<path d="M0 0 L599 0 L599 842.09 L0 842.09 Z" />
</clipPath>
<g clip-path="url(#clp46)">
<g class="ps00">
<clipPath id="clp47">
<path d="M395 137 L443 137 L443 158 L395 158 Z" />
</clipPath>
<g clip-path="url(#clp47)">
<g class="ps00">
<text transform="matrix(1 0 0 1 400 151.5)"><tspan class="ps03 ps22" xml:space="preserve">Address</tspan></text>
</g>
</g>
</g>
<g class="ps00">
<clipPath id="clp48">
<path d="M431 137 L446 137 L446 158 L431 158 Z" />
</clipPath>
<g clip-path="url(#clp48)">
<g class="ps00">
<text transform="matrix(1 0 0 1 436.725 151.5)"><tspan xml:space="preserve" x="0,2.4" class="ps03 ps22">: </tspan></text>
</g>
</g>
</g>
<g class="ps00">
<clipPath id="clp49">
<path d="M436 137 L507 137 L507 158 L436 158 Z" />
</clipPath>
<g clip-path="url(#clp49)">
<g class="ps00">
<text transform="matrix(1 0 0 1 441.5 151.5)"><tspan class="ps03 ps21" xml:space="preserve">4 Queensway</tspan></text>
</g>
</g>
</g>
<g class="ps00">
<clipPath id="clp50">
<path d="M495 137 L510 137 L510 158 L495 158 Z" />
</clipPath>
<g clip-path="url(#clp50)">
<g class="ps00">
<text transform="matrix(1 0 0 1 500.437 151.5)"><tspan xml:space="preserve" x="0,2.4" class="ps03 ps21">, </tspan></text>
</g>
</g>
</g>
<g class="ps00">
<clipPath id="clp51">
<path d="M500 137 L553 137 L553 158 L500 158 Z" />
</clipPath>
<g clip-path="url(#clp51)">
<g class="ps00">
<text transform="matrix(1 0 0 1 505.487 151.5)"><tspan class="ps03 ps21" xml:space="preserve">Sheffield</tspan></text>
</g>
</g>
</g>
<g class="ps00">
<clipPath id="clp52">
<path d="M543 137 L565 137 L565 158 L543 158 Z" />
</clipPath>
<g clip-path="url(#clp52)">
<g class="ps00">
<text transform="matrix(1 0 0 1 548.724 151.5)"><tspan class="ps03 ps21" xml:space="preserve">S1</tspan></text>
</g>
</g>
</g>
<g class="ps00">
<clipPath id="clp53">
<path d="M395 154 L424 154 L424 175 L395 175 Z" />
</clipPath>
<g clip-path="url(#clp53)">
<g class="ps00">
<text transform="matrix(1 0 0 1 400 168.5)"><tspan class="ps03 ps21" xml:space="preserve">9TH</tspan></text>
</g>
</g>
</g>
<g class="ps00">
<clipPath id="clp54">
<path d="M395 171 L435 171 L435 192 L395 192 Z" />
</clipPath>
<g clip-path="url(#clp54)">
<g class="ps00">
<text transform="matrix(1 0 0 1 400 185.5)"><tspan class="ps03 ps22" xml:space="preserve">Phone</tspan></text>
</g>
</g>
</g>
<g class="ps00">
<clipPath id="clp55">
<path d="M423 171 L438 171 L438 192 L423 192 Z" />
</clipPath>
<g clip-path="url(#clp55)">
<g class="ps00">
<text transform="matrix(1 0 0 1 428.712 185.5)"><tspan xml:space="preserve" x="0,2.4" class="ps03 ps22">: </tspan></text>
</g>
</g>
</g>
<g class="ps00">
<clipPath id="clp56">
<path d="M428 171 L497 171 L497 192 L428 192 Z" />
</clipPath>
<g clip-path="url(#clp56)">
<g class="ps00">
<text transform="matrix(1 0 0 1 433.487 185.5)"><tspan class="ps03 ps21" xml:space="preserve">07912 345678</tspan></text>
</g>
</g>
</g>
<g class="ps00">
<clipPath id="clp57">
<path d="M395 188 L431 188 L431 209 L395 209 Z" />
</clipPath>
<g clip-path="url(#clp57)">
<g class="ps00">
<text transform="matrix(1 0 0 1 400 202.5)"><tspan class="ps03 ps22" xml:space="preserve">Email</tspan></text>
</g>
</g>
</g>
<g class="ps00">
<clipPath id="clp58">
<path d="M419 188 L434 188 L434 209 L419 209 Z" />
</clipPath>
<g clip-path="url(#clp58)">
<g class="ps00">
<text transform="matrix(1 0 0 1 424.987 202.5)"><tspan xml:space="preserve" x="0,2.4" class="ps03 ps22">: </tspan></text>
</g>
</g>
</g>
<g class="ps00">
<clipPath id="clp59">
<path d="M424 188 L521 188 L521 209 L424 209 Z" />
</clipPath>
<g clip-path="url(#clp59)">
<g class="ps00">
<text transform="matrix(1 0 0 1 429.762 202.5)"><tspan class="ps03 ps21" xml:space="preserve">p.piper@example-</tspan></text>
</g>
</g>
</g>
<g class="ps00">
<clipPath id="clp60">
<path d="M395 205 L471 205 L471 226 L395 226 Z" />
</clipPath>
<g clip-path="url(#clp60)">
<g class="ps00">
<text transform="matrix(1 0 0 1 400 219.5)"><tspan class="ps03 ps21" xml:space="preserve">example.co.uk</tspan></text>
</g>
</g>
</g>
</g>
</g>
<g>
<clipPath id="clp61">
<path d="M400 255 L560 255 L560 273 L400 273 Z" />
</clipPath>
<g clip-path="url(#clp61)">
<g class="ps00">
<clipPath id="clp62">
<path d="M397 252 L453 252 L453 276 L397 276 Z" />
</clipPath>
<g clip-path="url(#clp62)">
<g class="ps00">
<text transform="matrix(1 0 0 1 400 269.5)"><tspan class="ps02 ps20" xml:space="preserve">SKILLS</tspan></text>
</g>
</g>
</g>
</g>
</g>
<g>
<clipPath id="clp63">
<path d="M400 461 L560 461 L560 479 L400 479 Z" />
</clipPath>
<g clip-path="url(#clp63)">
<g class="ps00">
<clipPath id="clp64">
<path d="M397 458 L483 458 L483 482 L397 482 Z" />
</clipPath>
<g clip-path="url(#clp64)">
<g class="ps00">
<text transform="matrix(1 0 0 1 400 475.5)"><tspan class="ps02 ps20" xml:space="preserve">EDUCATION</tspan></text>
</g>
</g>
</g>
</g>
</g>
<g>
<clipPath id="clp65">
<path d="M0 0 L599 0 L599 842.09 L0 842.09 Z" />
</clipPath>
<g clip-path="url(#clp65)">
<g class="ps00">
<clipPath id="clp66">
<path d="M395 481 L486 481 L486 502 L395 502 Z" />
</clipPath>
<g clip-path="url(#clp66)">
<g class="ps00">
<text transform="matrix(1 0 0 1 400 495.5)"><tspan class="ps03 ps23" xml:space="preserve">Master of Science</tspan></text>
</g>
</g>
</g>
<g class="ps00">
<clipPath id="clp67">
<path d="M474 481 L489 481 L489 502 L474 502 Z" />
</clipPath>
<g clip-path="url(#clp67)">
<g class="ps00">
<text transform="matrix(1 0 0 1 479.825 495.5)"><tspan xml:space="preserve" x="0,2.4" class="ps03 ps21">, </tspan></text>
</g>
</g>
</g>
<g class="ps00">
<clipPath id="clp68">
<path d="M479 481 L523 481 L523 502 L479 502 Z" />
</clipPath>
<g clip-path="url(#clp68)">
<g class="ps00">
<text transform="matrix(1 0 0 1 484.875 495.5)"><tspan class="ps03 ps23" xml:space="preserve">Project</tspan></text>
</g>
</g>
</g>
<g class="ps00">
<clipPath id="clp69">
<path d="M395 498 L465 498 L465 519 L395 519 Z" />
</clipPath>
<g clip-path="url(#clp69)">
<g class="ps00">
<text transform="matrix(1 0 0 1 400 512.5)"><tspan class="ps03 ps23" xml:space="preserve">Management</tspan></text>
</g>
</g>
</g>
<g class="ps00">
<clipPath id="clp70">
<path d="M453 498 L468 498 L468 519 L453 519 Z" />
</clipPath>
<g clip-path="url(#clp70)">
<g class="ps00">
<text transform="matrix(1 0 0 1 458.674 512.5)"><tspan xml:space="preserve" x="0,2.4" class="ps03 ps21">, </tspan></text>
</g>
</g>
</g>
<g class="ps00">
<clipPath id="clp71">
<path d="M458 498 L509 498 L509 519 L458 519 Z" />
</clipPath>
<g clip-path="url(#clp71)">
<g class="ps00">
<text transform="matrix(1 0 0 1 463.725 512.5)"><tspan class="ps03 ps23" xml:space="preserve">08/2008</tspan></text>
</g>
</g>
</g>
<g class="ps00">
<clipPath id="clp72">
<path d="M395 515 L526 515 L526 536 L395 536 Z" />
</clipPath>
<g clip-path="url(#clp72)">
<g class="ps00">
<text transform="matrix(1 0 0 1 400 529.5)"><tspan class="ps03 ps22" xml:space="preserve">University of Huddersfield</tspan></text>
</g>
</g>
</g>
<g class="ps00">
<clipPath id="clp73">
<path d="M517 515 L533 515 L533 536 L517 536 Z" />
</clipPath>
<g clip-path="url(#clp73)">
<g class="ps00">
<text transform="matrix(1 0 0 1 522.474 529.5)"><tspan class="ps03 ps21">-</tspan></text>
</g>
</g>
</g>
<g class="ps00">
<clipPath id="clp74">
<path d="M395 532 L464 532 L464 553 L395 553 Z" />
</clipPath>
<g clip-path="url(#clp74)">
<g class="ps00">
<text transform="matrix(1 0 0 1 400 546.5)"><tspan class="ps03 ps24" xml:space="preserve">Huddersfield</tspan></text>
</g>
</g>
</g>
<g class="ps00">
<clipPath id="clp75">
<path d="M395 564 L496 564 L496 585 L395 585 Z" />
</clipPath>
<g clip-path="url(#clp75)">
<g class="ps00">
<text transform="matrix(1 0 0 1 400 578.5)"><tspan class="ps03 ps23" xml:space="preserve">Bachelor of Science</tspan></text>
</g>
</g>
</g>
<g class="ps00">
<clipPath id="clp76">
<path d="M484 564 L499 564 L499 585 L484 585 Z" />
</clipPath>
<g clip-path="url(#clp76)">
<g class="ps00">
<text transform="matrix(1 0 0 1 489.212 578.5)"><tspan xml:space="preserve" x="0,2.4" class="ps03 ps21">, </tspan></text>
</g>
</g>
</g>
<g class="ps00">
<clipPath id="clp77">
<path d="M489 564 L520 564 L520 585 L489 585 Z" />
</clipPath>
<g clip-path="url(#clp77)">
<g class="ps00">
<text transform="matrix(1 0 0 1 494.262 578.5)"><tspan x="0,5.68,8.5,13.54,16.36" class="ps03 ps23">Civil</tspan></text>
</g>
</g>
</g>
<g class="ps00">
<clipPath id="clp78">
<path d="M395 581 L460 581 L460 602 L395 602 Z" />
</clipPath>
<g clip-path="url(#clp78)">
<g class="ps00">
<text transform="matrix(1 0 0 1 400 595.5)"><tspan class="ps03 ps23" xml:space="preserve">Engineering</tspan></text>
</g>
</g>
</g>
<g class="ps00">
<clipPath id="clp79">
<path d="M448 581 L463 581 L463 602 L448 602 Z" />
</clipPath>
<g clip-path="url(#clp79)">
<g class="ps00">
<text transform="matrix(1 0 0 1 453.950 595.5)"><tspan xml:space="preserve" x="0,2.4" class="ps03 ps21">, </tspan></text>
</g>
</g>
</g>
<g class="ps00">
<clipPath id="clp80">
<path d="M454 581 L504 581 L504 602 L454 602 Z" />
</clipPath>
<g clip-path="url(#clp80)">
<g class="ps00">
<text transform="matrix(1 0 0 1 459 595.5)"><tspan class="ps03 ps23" xml:space="preserve">08/2006</tspan></text>
</g>
</g>
</g>
<g class="ps00">
<clipPath id="clp81">
<path d="M395 598 L494 598 L494 619 L395 619 Z" />
</clipPath>
<g clip-path="url(#clp81)">
<g class="ps00">
<text transform="matrix(1 0 0 1 400 612.5)"><tspan class="ps03 ps22" xml:space="preserve">University of Leeds</tspan></text>
</g>
</g>
</g>
<g class="ps00">
<clipPath id="clp82">
<path d="M484 598 L501 598 L501 619 L484 619 Z" />
</clipPath>
<g clip-path="url(#clp82)">
<g class="ps00">
<text transform="matrix(1 0 0 1 489.762 612.5)"><tspan class="ps03 ps21" xml:space="preserve">- </tspan></text>
</g>
</g>
</g>
<g class="ps00">
<clipPath id="clp83">
<path d="M491 598 L529 598 L529 619 L491 619 Z" />
</clipPath>
<g clip-path="url(#clp83)">
<g class="ps00">
<text transform="matrix(1 0 0 1 496.437 612.5)"><tspan class="ps03 ps24" xml:space="preserve">Leeds</tspan></text>
</g>
</g>
</g>
<g class="ps00">
<clipPath id="clp84">
<path d="M34.998 91.001 L560 91.001 L560 92.003 L34.998 92.003 Z" />
</clipPath>
<g clip-path="url(#clp84)">
<g class="ps00">
<path d="M34.998 91.001 L560 91.001 L560 92.003 L34.998 92.003 Z" class="ps01" />
</g>
</g>
</g>
<g class="ps00">
<clipPath id="clp85">
<path d="M29.998 37.002 L124 37.002 L124 89.003 L29.998 89.003 Z" />
</clipPath>
<g clip-path="url(#clp85)">
<g class="ps00">
<text transform="matrix(1 0 0 1 35 75)"><tspan class="ps02 ps25" xml:space="preserve">PAUL</tspan></text>
</g>
</g>
</g>
<g class="ps00">
<clipPath id="clp86">
<path d="M120 37.002 L227 37.002 L227 89.003 L120 89.003 Z" />
</clipPath>
<g clip-path="url(#clp86)">
<g class="ps00">
<text transform="matrix(1 0 0 1 125.75 75)"><tspan x="0,21.6,32.148,53.748,72.684" class="ps02 ps25">PIPER</tspan></text>
</g>
</g>
</g>
</g>
</g>
<g>
<clipPath id="clp87">
<path d="M34.998 0 L560 0 L560 34.998 L34.998 34.998 Z" />
</clipPath>
<g clip-path="url(#clp87)">
<g class="ps00">
<path d="M34.998 0 L560 0 L560 34.998 L34.998 34.998 Z" class="ps04" />
</g>
</g>
</g>
<g>
<clipPath id="clp88">
<path d="M212.14 119 L366 119 L366 131.5 L212.14 131.5 Z" />
</clipPath>
<g clip-path="url(#clp88)">
<g class="ps00">
<path d="M212.14 119 L543.14 119 L543.14 131.5 L212.14 131.5 Z" class="ps04" />
</g>
</g>
</g>
<g>
<clipPath id="clp89">
<path d="M142.74 257 L366 257 L366 269.5 L142.74 269.5 Z" />
</clipPath>
<g clip-path="url(#clp89)">
<g class="ps00">
<path d="M142.74 257 L473.74 257 L473.74 269.5 L142.74 269.5 Z" class="ps04" />
</g>
</g>
</g>
<g>
<clipPath id="clp90">
<path d="M0 0 L599 0 L599 842.09 L0 842.09 Z" />
</clipPath>
<g clip-path="url(#clp90)">
<g class="ps00">
<clipPath id="clp91">
<path d="M37.999 312 L332 312 L332 333 L37.999 333 Z" />
</clipPath>
<g clip-path="url(#clp91)">
<g class="ps00">
<text transform="matrix(1 0 0 1 43 326.5)"><tspan class="ps03 ps21" xml:space="preserve">Consistently met reliability and safety standards by constantly</tspan></text>
</g>
</g>
</g>
<g class="ps00">
<clipPath id="clp92">
<path d="M37.999 329 L291 329 L291 350 L37.999 350 Z" />
</clipPath>
<g clip-path="url(#clp92)">
<g class="ps00">
<text transform="matrix(1 0 0 1 43 343.5)"><tspan class="ps03 ps21" xml:space="preserve">verifying conformance to product quality parameters.</tspan></text>
</g>
</g>
</g>
<g class="ps00">
<clipPath id="clp93">
<path d="M29.998 312 L44.997 312 L44.997 333 L29.998 333 Z" />
</clipPath>
<g clip-path="url(#clp93)">
<g class="ps00">
<text transform="matrix(1 0 0 1 35 326.5)"><tspan class="ps03 ps21">•</tspan></text>
</g>
</g>
</g>
<g class="ps00">
<clipPath id="clp94">
<path d="M37.999 346 L315 346 L315 367 L37.999 367 Z" />
</clipPath>
<g clip-path="url(#clp94)">
<g class="ps00">
<text transform="matrix(1 0 0 1 43 360.5)"><tspan class="ps03 ps21" xml:space="preserve">Utilised MS Project to plan, manage and track 5-10 projects</tspan></text>
</g>
</g>
</g>
<g class="ps00">
<clipPath id="clp95">
<path d="M37.999 363 L121 363 L121 384 L37.999 384 Z" />
</clipPath>
<g clip-path="url(#clp95)">
<g class="ps00">
<text transform="matrix(1 0 0 1 43 377.5)"><tspan class="ps03 ps21" xml:space="preserve">simultaneously.</tspan></text>
</g>
</g>
</g>
<g class="ps00">
<clipPath id="clp96">
<path d="M29.998 346 L44.997 346 L44.997 367 L29.998 367 Z" />
</clipPath>
<g clip-path="url(#clp96)">
<g class="ps00">
<text transform="matrix(1 0 0 1 35 360.5)"><tspan class="ps03 ps21">•</tspan></text>
</g>
</g>
</g>
<g class="ps00">
<clipPath id="clp97">
<path d="M37.999 380 L353 380 L353 401 L37.999 401 Z" />
</clipPath>
<g clip-path="url(#clp97)">
<g class="ps00">
<text transform="matrix(1 0 0 1 43 394.5)"><tspan class="ps03 ps21" xml:space="preserve">Defined project proposals and determined time, quality, safety and</tspan></text>
</g>
</g>
</g>
<g class="ps00">
<clipPath id="clp98">
<path d="M37.999 397 L184 397 L184 418 L37.999 418 Z" />
</clipPath>
<g clip-path="url(#clp98)">
<g class="ps00">
<text transform="matrix(1 0 0 1 43 411.5)"><tspan class="ps03 ps21" xml:space="preserve">cost scope with 95% accuracy.</tspan></text>
</g>
</g>
</g>
<g class="ps00">
<clipPath id="clp99">
<path d="M29.998 380 L44.997 380 L44.997 401 L29.998 401 Z" />
</clipPath>
<g clip-path="url(#clp99)">
<g class="ps00">
<text transform="matrix(1 0 0 1 35 394.5)"><tspan class="ps03 ps21">•</tspan></text>
</g>
</g>
</g>
<g class="ps00">
<clipPath id="clp100">
<path d="M37.999 466 L359 466 L359 487 L37.999 487 Z" />
</clipPath>
<g clip-path="url(#clp100)">
<g class="ps00">
<text transform="matrix(1 0 0 1 43 480.5)"><tspan class="ps03 ps21" xml:space="preserve">Inspected project sites to monitor progress and adherence to design</tspan></text>
</g>
</g>
</g>
<g class="ps00">
<clipPath id="clp101">
<path d="M37.999 483 L308 483 L308 504 L37.999 504 Z" />
</clipPath>
<g clip-path="url(#clp101)">
<g class="ps00">
<text transform="matrix(1 0 0 1 43 497.5)"><tspan class="ps03 ps21" xml:space="preserve">specifications, safety protocols and sanitation standards.</tspan></text>
</g>
</g>
</g>
<g class="ps00">
<clipPath id="clp102">
<path d="M29.998 466 L44.997 466 L44.997 487 L29.998 487 Z" />
</clipPath>
<g clip-path="url(#clp102)">
<g class="ps00">
<text transform="matrix(1 0 0 1 35 480.5)"><tspan class="ps03 ps21">•</tspan></text>
</g>
</g>
</g>
<g class="ps00">
<clipPath id="clp103">
<path d="M37.999 500 L370 500 L370 521 L37.999 521 Z" />
</clipPath>
<g clip-path="url(#clp103)">
<g class="ps00">
<text transform="matrix(1 0 0 1 43 514.5)"><tspan class="ps03 ps21" xml:space="preserve">Resolved structural problems by collecting data, establishing facts and</tspan></text>
</g>
</g>
</g>
<g class="ps00">
<clipPath id="clp104">
<path d="M37.999 517 L185 517 L185 538 L37.999 538 Z" />
</clipPath>
<g clip-path="url(#clp104)">
<g class="ps00">
<text transform="matrix(1 0 0 1 43 531.5)"><tspan class="ps03 ps21" xml:space="preserve">drawing accurate conclusions.</tspan></text>
</g>
</g>
</g>
<g class="ps00">
<clipPath id="clp105">
<path d="M29.998 500 L44.997 500 L44.997 521 L29.998 521 Z" />
</clipPath>
<g clip-path="url(#clp105)">
<g class="ps00">
<text transform="matrix(1 0 0 1 35 514.5)"><tspan class="ps03 ps21">•</tspan></text>
</g>
</g>
</g>
<g class="ps00">
<clipPath id="clp106">
<path d="M37.999 534 L362 534 L362 555 L37.999 555 Z" />
</clipPath>
<g clip-path="url(#clp106)">
<g class="ps00">
<text transform="matrix(1 0 0 1 43 548.5)"><tspan class="ps03 ps21" xml:space="preserve">Recommended and selected new and replacement test equipment to</tspan></text>
</g>
</g>
</g>
<g class="ps00">
<clipPath id="clp107">
<path d="M37.999 551 L239 551 L239 572 L37.999 572 Z" />
</clipPath>
<g clip-path="url(#clp107)">
<g class="ps00">
<text transform="matrix(1 0 0 1 43 565.5)"><tspan class="ps03 ps21" xml:space="preserve">improve research and testing capabilities.</tspan></text>
</g>
</g>
</g>
<g class="ps00">
<clipPath id="clp108">
<path d="M29.998 534 L44.997 534 L44.997 555 L29.998 555 Z" />
</clipPath>
<g clip-path="url(#clp108)">
<g class="ps00">
<text transform="matrix(1 0 0 1 35 548.5)"><tspan class="ps03 ps21">•</tspan></text>
</g>
</g>
</g>
<g class="ps00">
<clipPath id="clp109">
<path d="M37.999 620 L341 620 L341 641 L37.999 641 Z" />
</clipPath>
<g clip-path="url(#clp109)">
<g class="ps00">
<text transform="matrix(1 0 0 1 43 634.5)"><tspan class="ps03 ps21" xml:space="preserve">Checked design calculations of 15 engineers with 100% accuracy.</tspan></text>
</g>
</g>
</g>
<g class="ps00">
<clipPath id="clp110">
<path d="M29.998 620 L44.997 620 L44.997 641 L29.998 641 Z" />
</clipPath>
<g clip-path="url(#clp110)">
<g class="ps00">
<text transform="matrix(1 0 0 1 35 634.5)"><tspan class="ps03 ps21">•</tspan></text>
</g>
</g>
</g>
<g class="ps00">
<clipPath id="clp111">
<path d="M37.999 637 L353 637 L353 658 L37.999 658 Z" />
</clipPath>
<g clip-path="url(#clp111)">
<g class="ps00">
<text transform="matrix(1 0 0 1 43 651.5)"><tspan class="ps03 ps21" xml:space="preserve">Logged and utilised Excel spreadsheets data, providing informative</tspan></text>
</g>
</g>
</g>
<g class="ps00">
<clipPath id="clp112">
<path d="M37.999 654 L271 654 L271 675 L37.999 675 Z" />
</clipPath>
<g clip-path="url(#clp112)">
<g class="ps00">
<text transform="matrix(1 0 0 1 43 668.5)"><tspan class="ps03 ps21" xml:space="preserve">PowerPoint presentations for planning meetings.</tspan></text>
</g>
</g>
</g>
<g class="ps00">
<clipPath id="clp113">
<path d="M29.998 637 L44.997 637 L44.997 658 L29.998 658 Z" />
</clipPath>
<g clip-path="url(#clp113)">
<g class="ps00">
<text transform="matrix(1 0 0 1 35 651.5)"><tspan class="ps03 ps21">•</tspan></text>
</g>
</g>
</g>
<g class="ps00">
<clipPath id="clp114">
<path d="M37.999 671 L344 671 L344 692 L37.999 692 Z" />
</clipPath>
<g clip-path="url(#clp114)">
<g class="ps00">
<text transform="matrix(1 0 0 1 43 685.5)"><tspan class="ps03 ps21" xml:space="preserve">Prepared installation project proposals, including cost estimates,</tspan></text>
</g>
</g>
</g>
<g class="ps00">
<clipPath id="clp115">
<path d="M37.999 688 L217 688 L217 709 L37.999 709 Z" />
</clipPath>
<g clip-path="url(#clp115)">
<g class="ps00">
<text transform="matrix(1 0 0 1 43 702.5)"><tspan class="ps03 ps21" xml:space="preserve">schedules and project specifications.</tspan></text>
</g>
</g>
</g>
<g class="ps00">
<clipPath id="clp116">
<path d="M29.998 671 L44.997 671 L44.997 692 L29.998 692 Z" />
</clipPath>
<g clip-path="url(#clp116)">
<g class="ps00">
<text transform="matrix(1 0 0 1 35 685.5)"><tspan class="ps03 ps21">•</tspan></text>
</g>
</g>
</g>
</g>
</g>
<g>
<clipPath id="clp117">
<path d="M465.7 119 L560 119 L560 131.5 L465.7 131.5 Z" />
</clipPath>
<g clip-path="url(#clp117)">
<g class="ps00">
<path d="M465.7 119 L625.7 119 L625.7 131.5 L465.7 131.5 Z" class="ps04" />
</g>
</g>
</g>
<g>
<clipPath id="clp118">
<path d="M451.19 257 L560 257 L560 269.5 L451.19 269.5 Z" />
</clipPath>
<g clip-path="url(#clp118)">
<g class="ps00">
<path d="M451.19 257 L611.19 257 L611.19 269.5 L451.19 269.5 Z" class="ps04" />
</g>
</g>
</g>
<g>
<clipPath id="clp119">
<path d="M0 0 L599 0 L599 842.09 L0 842.09 Z" />
</clipPath>
<g clip-path="url(#clp119)">
<g class="ps00">
<clipPath id="clp120">
<path d="M403 275 L536 275 L536 296 L403 296 Z" />
</clipPath>
<g clip-path="url(#clp120)">
<g class="ps00">
<text transform="matrix(1 0 0 1 408 289.5)"><tspan class="ps03 ps21" xml:space="preserve">Engineering cost estimates</tspan></text>
</g>
</g>
</g>
<g class="ps00">
<clipPath id="clp121">
<path d="M395 275 L410 275 L410 296 L395 296 Z" />
</clipPath>
<g clip-path="url(#clp121)">
<g class="ps00">
<text transform="matrix(1 0 0 1 400 289.5)"><tspan class="ps03 ps21">•</tspan></text>
</g>
</g>
</g>
<g class="ps00">
<clipPath id="clp122">
<path d="M403 292 L562 292 L562 313 L403 313 Z" />
</clipPath>
<g clip-path="url(#clp122)">
<g class="ps00">
<text transform="matrix(1 0 0 1 408 306.5)"><tspan class="ps03 ps21" xml:space="preserve">Waterfall and V model processes</tspan></text>
</g>
</g>
</g>
<g class="ps00">
<clipPath id="clp123">
<path d="M395 292 L410 292 L410 313 L395 313 Z" />
</clipPath>
<g clip-path="url(#clp123)">
<g class="ps00">
<text transform="matrix(1 0 0 1 400 306.5)"><tspan class="ps03 ps21">•</tspan></text>
</g>
</g>
</g>
<g class="ps00">
<clipPath id="clp124">
<path d="M403 309 L542 309 L542 330 L403 330 Z" />
</clipPath>
<g clip-path="url(#clp124)">
<g class="ps00">
<text transform="matrix(1 0 0 1 408 323.5)"><tspan class="ps03 ps21" xml:space="preserve">Agile project methodologies</tspan></text>
</g>
</g>
</g>
<g class="ps00">
<clipPath id="clp125">
<path d="M395 309 L410 309 L410 330 L395 330 Z" />
</clipPath>
<g clip-path="url(#clp125)">
<g class="ps00">
<text transform="matrix(1 0 0 1 400 323.5)"><tspan class="ps03 ps21">•</tspan></text>
</g>
</g>
</g>
<g class="ps00">
<clipPath id="clp126">
<path d="M403 326 L462 326 L462 347 L403 347 Z" />
</clipPath>
<g clip-path="url(#clp126)">
<g class="ps00">
<text transform="matrix(1 0 0 1 408 340.5)"><tspan class="ps03 ps21" xml:space="preserve">MS Project</tspan></text>
</g>
</g>
</g>
<g class="ps00">
<clipPath id="clp127">
<path d="M395 326 L410 326 L410 347 L395 347 Z" />
</clipPath>
<g clip-path="url(#clp127)">
<g class="ps00">
<text transform="matrix(1 0 0 1 400 340.5)"><tspan class="ps03 ps21">•</tspan></text>
</g>
</g>
</g>
<g class="ps00">
<clipPath id="clp128">
<path d="M403 343 L514 343 L514 364 L403 364 Z" />
</clipPath>
<g clip-path="url(#clp128)">
<g class="ps00">
<text transform="matrix(1 0 0 1 408 357.5)"><tspan class="ps03 ps21" xml:space="preserve">Cross-functional team</tspan></text>
</g>
</g>
</g>
<g class="ps00">
<clipPath id="clp129">
<path d="M403 360 L467 360 L467 381 L403 381 Z" />
</clipPath>
<g clip-path="url(#clp129)">
<g class="ps00">
<text transform="matrix(1 0 0 1 408 374.5)"><tspan x="0,4.67" class="ps03 ps21" xml:space="preserve">supervision</tspan></text>
</g>
</g>
</g>
<g class="ps00">
<clipPath id="clp130">
<path d="M395 343 L410 343 L410 364 L395 364 Z" />
</clipPath>
<g clip-path="url(#clp130)">
<g class="ps00">
<text transform="matrix(1 0 0 1 400 357.5)"><tspan class="ps03 ps21">•</tspan></text>
</g>
</g>
</g>
<g class="ps00">
<clipPath id="clp131">
<path d="M403 377 L550 377 L550 398 L403 398 Z" />
</clipPath>
<g clip-path="url(#clp131)">
<g class="ps00">
<text transform="matrix(1 0 0 1 408 391.5)"><tspan class="ps03 ps21" xml:space="preserve">Risk and change management</tspan></text>
</g>
</g>
</g>
<g class="ps00">
<clipPath id="clp132">
<path d="M395 377 L410 377 L410 398 L395 398 Z" />
</clipPath>
<g clip-path="url(#clp132)">
<g class="ps00">
<text transform="matrix(1 0 0 1 400 391.5)"><tspan class="ps03 ps21">•</tspan></text>
</g>
</g>
</g>
<g class="ps00">
<clipPath id="clp133">
<path d="M403 394 L563 394 L563 415 L403 415 Z" />
</clipPath>
<g clip-path="url(#clp133)">
<g class="ps00">
<text transform="matrix(1 0 0 1 408 408.5)"><tspan class="ps03 ps21" xml:space="preserve">Budgeting and cost management</tspan></text>
</g>
</g>
</g>
<g class="ps00">
<clipPath id="clp134">
<path d="M395 394 L410 394 L410 415 L395 415 Z" />
</clipPath>
<g clip-path="url(#clp134)">
<g class="ps00">
<text transform="matrix(1 0 0 1 400 408.5)"><tspan class="ps03 ps21">•</tspan></text>
</g>
</g>
</g>
<g class="ps00">
<clipPath id="clp135">
<path d="M403 411 L553 411 L553 432 L403 432 Z" />
</clipPath>
<g clip-path="url(#clp135)">
<g class="ps00">
<text transform="matrix(1 0 0 1 408 425.5)"><tspan class="ps03 ps21" xml:space="preserve">AutoCAD Civils 3D &amp; Water CAD</tspan></text>
</g>
</g>
</g>
<g class="ps00">
<clipPath id="clp136">
<path d="M395 411 L410 411 L410 432 L395 432 Z" />
</clipPath>
<g clip-path="url(#clp136)">
<g class="ps00">
<text transform="matrix(1 0 0 1 400 425.5)"><tspan class="ps03 ps21">•</tspan></text>
</g>
</g>
</g>
</g>
</g>
<g>
<clipPath id="clp137">
<path d="M481.33 463 L560 463 L560 475.5 L481.33 475.5 Z" />
</clipPath>
<g clip-path="url(#clp137)">
<g class="ps00">
<path d="M481.33 463 L641.33 463 L641.33 475.5 L481.33 475.5 Z" class="ps04" />
</g>
</g>
</g>
</g>
</g>
</g>
</g>
</g>
</g>
</svg>