<svg width="21" height="14" viewBox="0 0 21 14" fill="none" xmlns="http://www.w3.org/2000/svg">
<path d="M9.93099 0H11.0607C11.1279 0.0146816 11.1951 0.0377528 11.2644 0.0419476C12.0813 0.104869 12.873 0.289438 13.6374 0.570487C16.3484 1.57303 18.5617 3.26981 20.3865 5.48464C21.216 6.49139 21.1971 7.51491 20.3739 8.53214C19.242 9.93318 17.8981 11.0972 16.3841 12.0662C15.1367 12.8632 13.8074 13.4778 12.3522 13.7882C11.9259 13.8784 11.4912 13.9308 11.0607 14H9.93099C9.86379 13.9853 9.79449 13.9622 9.7252 13.9581C9.02172 13.8993 8.33295 13.7546 7.66517 13.5281C4.78618 12.5528 2.47416 10.7805 0.556935 8.46082C0.248246 8.08749 0.0487534 7.65333 0.00675499 7.16255C-0.0499429 6.45993 0.256646 5.88944 0.68713 5.36929C1.83999 3.97873 3.19444 2.81258 4.72528 1.85408C5.99993 1.05498 7.35648 0.448839 8.84323 0.165693C9.20442 0.0964793 9.5677 0.0545318 9.93099 0ZM6.11963 7.00105C6.11963 9.39835 8.08306 11.3657 10.4833 11.3699C12.8898 11.3762 14.87 9.40045 14.87 6.99685C14.87 4.59955 12.9024 2.63431 10.5022 2.63011C8.08726 2.62592 6.11963 4.58906 6.11963 7.00105ZM11.319 4.52614C10.4476 5.25393 10.2565 6.03206 10.7689 6.77243C11.2854 7.5191 12.0624 7.60509 13.1019 7.03251C13.209 7.92599 12.4572 9.0418 11.4786 9.43611C10.3741 9.88075 9.09732 9.5221 8.39175 8.57199C7.67357 7.60509 7.69037 6.29423 8.43374 5.37139C9.13932 4.49468 10.4056 4.12345 11.319 4.52614Z" fill="url(#paint0_linear_571_2345)"/>
<defs>
<linearGradient id="paint0_linear_571_2345" x1="5.02817" y1="-3.66279" x2="20.1465" y2="9.62674" gradientUnits="userSpaceOnUse">
<stop stop-color="#F6826F"/>
<stop offset="1" stop-color="#FA4FCA"/>
</linearGradient>
</defs>
</svg>
