<svg width="38" height="38" viewBox="0 0 38 38" fill="none" xmlns="http://www.w3.org/2000/svg">
<circle cx="18.7379" cy="18.7379" r="18.7379" fill="#252524"/>
<path d="M20.2822 29.3579C18.4911 30.2924 16.6027 30.7597 14.6169 30.7597C12.9426 30.7597 11.3852 30.3508 9.94451 29.5332C8.50385 28.7155 7.53043 27.4111 7.02426 25.62C6.79064 24.8024 6.67383 23.9457 6.67383 23.0502C6.67383 21.5706 6.92692 20.0521 7.43309 18.4946C7.97821 16.8982 8.67907 15.4381 9.53567 14.1142C10.8595 12.0506 12.5338 10.3374 14.5585 8.9746C16.5832 7.61181 18.8221 6.93042 21.2751 6.93042C23.1051 6.93042 24.5263 7.39766 25.5386 8.33214C26.551 9.26662 27.0572 10.3568 27.0572 11.6028C27.0572 13.0824 26.551 14.3868 25.5386 15.516C24.5652 16.6062 23.2803 17.4433 21.6839 18.0274C20.9052 18.2999 20.068 18.5141 19.1725 18.6698C18.3159 18.7866 17.4982 18.845 16.7195 18.845C15.1231 18.845 13.8966 18.6309 13.04 18.2026C12.3002 20.1105 11.9303 21.8626 11.9303 23.459C11.9303 24.8997 12.2612 26.0873 12.9232 27.0217C13.5851 27.9173 14.6364 28.3651 16.077 28.3651C17.2841 28.3651 18.4716 28.0341 19.6397 27.3722C20.8468 26.7102 21.9565 25.8926 22.9688 24.9192C24.0201 23.9457 24.8962 23.0113 25.597 22.1157C26.1422 21.4538 26.6094 20.8308 26.9988 20.2468C27.3881 19.6627 27.797 19.0008 28.2253 18.261C28.6536 17.4823 29.1597 16.5283 29.7438 15.3991C29.8995 15.1266 30.0358 14.9903 30.1526 14.9903C30.3863 14.9903 30.5031 15.3018 30.5031 15.9248C30.5031 16.2752 30.4447 16.6646 30.3278 17.0929C30.25 17.4823 30.0942 17.8911 29.8606 18.3194C29.3155 19.2928 28.6536 20.3636 27.8748 21.5317C27.135 22.6608 26.3758 23.7511 25.597 24.8024C24.8962 25.7368 24.098 26.5934 23.2024 27.3722C22.3069 28.1509 21.3335 28.8128 20.2822 29.3579ZM14.9673 16.9177C15.162 17.0345 15.3762 17.1124 15.6098 17.1513C15.8434 17.1902 16.077 17.2097 16.3107 17.2097C17.0894 17.2097 17.8681 17.0345 18.6468 16.6841C19.4256 16.2947 20.0875 15.9053 20.6326 15.516C21.5282 14.893 22.2874 14.1532 22.9104 13.2966C23.5334 12.44 23.8838 11.4665 23.9617 10.3763C24.0006 9.90907 23.8838 9.51971 23.6113 9.20821C23.3777 8.85778 22.9494 8.68257 22.3264 8.68257C22.0149 8.68257 21.6255 8.74097 21.1583 8.85778C20.5353 9.01353 19.9123 9.30555 19.2893 9.73386C18.6663 10.1622 18.0628 10.6683 17.4788 11.2524C17.2841 11.4471 16.9336 11.8364 16.4275 12.4205C15.9602 12.9656 15.5124 13.5886 15.0841 14.2894C14.6558 14.9514 14.4417 15.5354 14.4417 16.0416C14.4417 16.4699 14.6169 16.7619 14.9673 16.9177Z" fill="#FFF6F6"/>
<circle cx="28.62" cy="27.8502" r="1.92513" fill="url(#paint0_linear_571_2357)"/>
<defs>
<linearGradient id="paint0_linear_571_2357" x1="27.6167" y1="24.9177" x2="31.2743" y2="27.0612" gradientUnits="userSpaceOnUse">
<stop stop-color="#F6826F"/>
<stop offset="1" stop-color="#FA4FCA"/>
</linearGradient>
</defs>
</svg>
