<svg width="17" height="12" viewBox="0 0 17 12" fill="none" xmlns="http://www.w3.org/2000/svg">
<path d="M16 2.5V9.5C16 9.89782 15.8177 10.2794 15.4931 10.5607C15.1685 10.842 14.7283 11 14.2692 11H2.73077C2.27174 11 1.83151 10.842 1.50693 10.5607C1.18235 10.2794 1 9.89782 1 9.5V2.5M16 2.5C16 2.10218 15.8177 1.72064 15.4931 1.43934C15.1685 1.15804 14.7283 1 14.2692 1H2.73077C2.27174 1 1.83151 1.15804 1.50693 1.43934C1.18235 1.72064 1 2.10218 1 2.5M16 2.5V2.662C16 2.9181 15.9244 3.16994 15.7803 3.39353C15.6363 3.61712 15.4285 3.80502 15.1769 3.93933L9.40769 7.016C9.13477 7.16169 8.82054 7.23883 8.5 7.23883C8.17946 7.23883 7.86523 7.16169 7.59231 7.016L1.82308 3.94C1.57148 3.80569 1.36375 3.61779 1.21967 3.3942C1.07559 3.1706 0.999967 2.91876 1 2.66267V2.5" stroke="black" stroke-width="1.2" stroke-linecap="round" stroke-linejoin="round"/>
</svg>
