<svg width="17" height="17" viewBox="0 0 17 17" fill="none" xmlns="http://www.w3.org/2000/svg">
<path d="M8.5 0C8.67341 0 8.83972 0.0688871 8.96234 0.191507C9.08496 0.314127 9.15385 0.480435 9.15385 0.653846V2.61538C9.15385 2.7888 9.08496 2.9551 8.96234 3.07772C8.83972 3.20034 8.67341 3.26923 8.5 3.26923C8.32659 3.26923 8.16028 3.20034 8.03766 3.07772C7.91504 2.9551 7.84615 2.7888 7.84615 2.61538V0.653846C7.84615 0.480435 7.91504 0.314127 8.03766 0.191507C8.16028 0.0688871 8.32659 0 8.5 0ZM4.57692 8.5C4.57692 7.45954 4.99025 6.46169 5.72597 5.72597C6.46169 4.99025 7.45954 4.57692 8.5 4.57692C9.54046 4.57692 10.5383 4.99025 11.274 5.72597C12.0098 6.46169 12.4231 7.45954 12.4231 8.5C12.4231 9.54046 12.0098 10.5383 11.274 11.274C10.5383 12.0098 9.54046 12.4231 8.5 12.4231C7.45954 12.4231 6.46169 12.0098 5.72597 11.274C4.99025 10.5383 4.57692 9.54046 4.57692 8.5ZM14.5102 3.41395C14.6256 3.29 14.6885 3.12606 14.6855 2.95667C14.6825 2.78728 14.6139 2.62566 14.4941 2.50587C14.3743 2.38607 14.2127 2.31745 14.0433 2.31446C13.8739 2.31147 13.71 2.37435 13.5861 2.48985L12.199 3.876C12.1365 3.93629 12.0867 4.00841 12.0524 4.08817C12.0181 4.16792 12 4.25371 11.9992 4.34053C11.9984 4.42734 12.0149 4.51345 12.0478 4.59382C12.0806 4.67419 12.1291 4.74722 12.1905 4.80864C12.2518 4.87006 12.3248 4.91864 12.4052 4.95155C12.4855 4.98447 12.5716 5.00105 12.6584 5.00034C12.7452 4.99963 12.831 4.98163 12.9108 4.9474C12.9906 4.91317 13.0628 4.86339 13.1231 4.80097L14.5102 3.41395ZM17 8.5C17 8.67341 16.9311 8.83972 16.8085 8.96234C16.6859 9.08496 16.5196 9.15385 16.3462 9.15385H14.3846C14.2112 9.15385 14.0449 9.08496 13.9223 8.96234C13.7997 8.83972 13.7308 8.67341 13.7308 8.5C13.7308 8.32659 13.7997 8.16028 13.9223 8.03766C14.0449 7.91504 14.2112 7.84615 14.3846 7.84615H16.3462C16.5196 7.84615 16.6859 7.91504 16.8085 8.03766C16.9311 8.16028 17 8.32659 17 8.5ZM13.5861 14.5102C13.71 14.6256 13.8739 14.6885 14.0433 14.6855C14.2127 14.6825 14.3743 14.6139 14.4941 14.4941C14.6139 14.3743 14.6825 14.2127 14.6855 14.0433C14.6885 13.8739 14.6256 13.71 14.5102 13.5861L13.124 12.199C13.0637 12.1365 12.9916 12.0867 12.9118 12.0524C12.8321 12.0181 12.7463 12 12.6595 11.9992C12.5727 11.9984 12.4866 12.0149 12.4062 12.0478C12.3258 12.0806 12.2528 12.1291 12.1914 12.1905C12.1299 12.2518 12.0814 12.3248 12.0484 12.4052C12.0155 12.4855 11.9989 12.5716 11.9997 12.6584C12.0004 12.7452 12.0184 12.831 12.0526 12.9108C12.0868 12.9906 12.1366 13.0628 12.199 13.1231L13.5861 14.5102ZM8.5 13.7308C8.67341 13.7308 8.83972 13.7997 8.96234 13.9223C9.08496 14.0449 9.15385 14.2112 9.15385 14.3846V16.3462C9.15385 16.5196 9.08496 16.6859 8.96234 16.8085C8.83972 16.9311 8.67341 17 8.5 17C8.32659 17 8.16028 16.9311 8.03766 16.8085C7.91504 16.6859 7.84615 16.5196 7.84615 16.3462V14.3846C7.84615 14.2112 7.91504 14.0449 8.03766 13.9223C8.16028 13.7997 8.32659 13.7308 8.5 13.7308ZM4.80185 13.1231C4.92089 12.9998 4.98672 12.8346 4.98515 12.6631C4.98358 12.4917 4.91474 12.3277 4.79345 12.2066C4.67217 12.0854 4.50814 12.0167 4.3367 12.0153C4.16526 12.0139 4.00013 12.0799 3.87687 12.199L2.48985 13.5852C2.37068 13.7084 2.3047 13.8736 2.30611 14.045C2.30752 14.2164 2.3762 14.3805 2.49738 14.5018C2.61855 14.623 2.78251 14.6919 2.95395 14.6935C3.12538 14.695 3.29058 14.6292 3.41395 14.5102L4.80097 13.124L4.80185 13.1231ZM3.26923 8.5C3.26923 8.67341 3.20034 8.83972 3.07772 8.96234C2.9551 9.08496 2.7888 9.15385 2.61538 9.15385H0.653846C0.480435 9.15385 0.314127 9.08496 0.191507 8.96234C0.0688871 8.83972 0 8.67341 0 8.5C0 8.32659 0.0688871 8.16028 0.191507 8.03766C0.314127 7.91504 0.480435 7.84615 0.653846 7.84615H2.61538C2.7888 7.84615 2.9551 7.91504 3.07772 8.03766C3.20034 8.16028 3.26923 8.32659 3.26923 8.5ZM3.87687 4.80097C4.00082 4.91647 4.16476 4.97935 4.33415 4.97636C4.50354 4.97337 4.66516 4.90475 4.78495 4.78495C4.90475 4.66516 4.97337 4.50354 4.97636 4.33415C4.97935 4.16476 4.91647 4.00082 4.80097 3.87687L3.41482 2.48985C3.29156 2.37068 3.12643 2.3047 2.95499 2.30611C2.78355 2.30752 2.61953 2.3762 2.49824 2.49738C2.37695 2.61855 2.30811 2.78251 2.30654 2.95395C2.30497 3.12538 2.3708 3.29058 2.48985 3.41395L3.87687 4.80097Z" fill="white"/>
</svg>
